<mxfile host="Electron" modified="2024-04-06T15:52:30.636Z" agent="Mozilla/5.0 (X11; Linux x86_64) AppleWebKit/537.36 (KHTML, like Gecko) draw.io/24.1.0 Chrome/120.0.6099.109 Electron/28.1.0 Safari/537.36" etag="piUhkAqraixQJljKjc1L" version="24.1.0" type="device">
  <diagram name="PÃ¡gina-1" id="eLkDxXY-62TLMYeRFwhm">
    <mxGraphModel dx="810" dy="454" grid="1" gridSize="10" guides="1" tooltips="1" connect="1" arrows="1" fold="1" page="1" pageScale="1" pageWidth="1169" pageHeight="827" math="0" shadow="0">
      <root>
        <mxCell id="0" />
        <mxCell id="1" parent="0" />
        <mxCell id="9aIz3eH4mraqbj3gu_Gu-1" value="" style="rounded=0;whiteSpace=wrap;html=1;" parent="1" vertex="1">
          <mxGeometry x="80" y="80" width="100" height="360" as="geometry" />
        </mxCell>
        <mxCell id="9aIz3eH4mraqbj3gu_Gu-2" value="&lt;b&gt;node1&lt;/b&gt;" style="text;html=1;align=center;verticalAlign=middle;whiteSpace=wrap;rounded=0;" parent="1" vertex="1">
          <mxGeometry x="110" y="50" width="60" height="30" as="geometry" />
        </mxCell>
        <mxCell id="9aIz3eH4mraqbj3gu_Gu-3" value="M2" style="rounded=0;whiteSpace=wrap;html=1;fillColor=#ffe6cc;strokeColor=#d79b00;" parent="1" vertex="1">
          <mxGeometry x="90" y="150" width="30" height="30" as="geometry" />
        </mxCell>
        <mxCell id="9aIz3eH4mraqbj3gu_Gu-4" value="M0" style="rounded=0;whiteSpace=wrap;html=1;fillColor=#dae8fc;strokeColor=#6c8ebf;" parent="1" vertex="1">
          <mxGeometry x="90" y="90" width="30" height="30" as="geometry" />
        </mxCell>
        <mxCell id="9aIz3eH4mraqbj3gu_Gu-5" value="M1" style="rounded=0;whiteSpace=wrap;html=1;fillColor=none;strokeColor=#6c8ebf;" parent="1" vertex="1">
          <mxGeometry x="90" y="120" width="30" height="30" as="geometry" />
        </mxCell>
        <mxCell id="9aIz3eH4mraqbj3gu_Gu-9" style="edgeStyle=orthogonalEdgeStyle;rounded=0;orthogonalLoop=1;jettySize=auto;html=1;exitX=1;exitY=0.5;exitDx=0;exitDy=0;entryX=1;entryY=0.5;entryDx=0;entryDy=0;fillColor=#dae8fc;strokeColor=#6c8ebf;" parent="1" source="9aIz3eH4mraqbj3gu_Gu-6" target="9aIz3eH4mraqbj3gu_Gu-4" edge="1">
          <mxGeometry relative="1" as="geometry">
            <Array as="points">
              <mxPoint x="170" y="371" />
              <mxPoint x="170" y="105" />
            </Array>
          </mxGeometry>
        </mxCell>
        <mxCell id="9aIz3eH4mraqbj3gu_Gu-6" value="Q0" style="rounded=0;whiteSpace=wrap;html=1;fillColor=#dae8fc;strokeColor=#6c8ebf;" parent="1" vertex="1">
          <mxGeometry x="124" y="356" width="30" height="30" as="geometry" />
        </mxCell>
        <mxCell id="9aIz3eH4mraqbj3gu_Gu-8" value="&lt;div&gt;EntangleNode&lt;br&gt;&lt;/div&gt;" style="rounded=0;whiteSpace=wrap;html=1;rotation=-90;fillColor=none;labelPosition=center;verticalLabelPosition=top;align=center;verticalAlign=bottom;labelBackgroundColor=default;" parent="1" vertex="1">
          <mxGeometry x="100.04" y="361.04" width="80.93" height="39" as="geometry" />
        </mxCell>
        <mxCell id="9aIz3eH4mraqbj3gu_Gu-11" style="edgeStyle=orthogonalEdgeStyle;rounded=0;orthogonalLoop=1;jettySize=auto;html=1;exitX=1;exitY=0.5;exitDx=0;exitDy=0;entryX=0;entryY=0.5;entryDx=0;entryDy=0;fillColor=#dae8fc;strokeColor=#6c8ebf;" parent="1" source="9aIz3eH4mraqbj3gu_Gu-7" target="9aIz3eH4mraqbj3gu_Gu-10" edge="1">
          <mxGeometry relative="1" as="geometry" />
        </mxCell>
        <mxCell id="9aIz3eH4mraqbj3gu_Gu-7" value="Q1" style="rounded=0;whiteSpace=wrap;html=1;fillColor=#dae8fc;strokeColor=#6c8ebf;" parent="1" vertex="1">
          <mxGeometry x="124" y="386" width="30" height="30" as="geometry" />
        </mxCell>
        <mxCell id="9aIz3eH4mraqbj3gu_Gu-19" style="edgeStyle=orthogonalEdgeStyle;rounded=0;orthogonalLoop=1;jettySize=auto;html=1;exitX=1;exitY=0.5;exitDx=0;exitDy=0;entryX=0;entryY=0.5;entryDx=0;entryDy=0;fillColor=#dae8fc;strokeColor=#6c8ebf;" parent="1" source="9aIz3eH4mraqbj3gu_Gu-10" target="9aIz3eH4mraqbj3gu_Gu-16" edge="1">
          <mxGeometry relative="1" as="geometry" />
        </mxCell>
        <mxCell id="9aIz3eH4mraqbj3gu_Gu-10" value="" style="ellipse;whiteSpace=wrap;html=1;aspect=fixed;fillColor=#66B2FF;strokeColor=#6c8ebf;" parent="1" vertex="1">
          <mxGeometry x="175" y="396" width="10" height="10" as="geometry" />
        </mxCell>
        <mxCell id="9aIz3eH4mraqbj3gu_Gu-121" style="edgeStyle=orthogonalEdgeStyle;rounded=0;orthogonalLoop=1;jettySize=auto;html=1;exitX=1;exitY=0.5;exitDx=0;exitDy=0;fillColor=#dae8fc;strokeColor=#6c8ebf;strokeWidth=2;" parent="1" source="9aIz3eH4mraqbj3gu_Gu-12" edge="1">
          <mxGeometry relative="1" as="geometry">
            <mxPoint x="290" y="97" as="targetPoint" />
          </mxGeometry>
        </mxCell>
        <mxCell id="9aIz3eH4mraqbj3gu_Gu-12" value="" style="ellipse;whiteSpace=wrap;html=1;aspect=fixed;fillColor=#66B2FF;strokeColor=#6c8ebf;" parent="1" vertex="1">
          <mxGeometry x="175" y="92" width="10" height="10" as="geometry" />
        </mxCell>
        <mxCell id="9aIz3eH4mraqbj3gu_Gu-14" value="Quantum&lt;div&gt;Channel&lt;/div&gt;" style="rounded=0;whiteSpace=wrap;html=1;" parent="1" vertex="1">
          <mxGeometry x="210" y="381" width="60" height="40" as="geometry" />
        </mxCell>
        <mxCell id="9aIz3eH4mraqbj3gu_Gu-16" value="" style="ellipse;whiteSpace=wrap;html=1;aspect=fixed;fillColor=#66B2FF;strokeColor=#6c8ebf;" parent="1" vertex="1">
          <mxGeometry x="205" y="396" width="10" height="10" as="geometry" />
        </mxCell>
        <mxCell id="9aIz3eH4mraqbj3gu_Gu-37" style="edgeStyle=orthogonalEdgeStyle;rounded=0;orthogonalLoop=1;jettySize=auto;html=1;exitX=1;exitY=0.5;exitDx=0;exitDy=0;fillColor=#dae8fc;strokeColor=#6c8ebf;" parent="1" source="9aIz3eH4mraqbj3gu_Gu-20" edge="1">
          <mxGeometry relative="1" as="geometry">
            <mxPoint x="290" y="401" as="targetPoint" />
          </mxGeometry>
        </mxCell>
        <mxCell id="9aIz3eH4mraqbj3gu_Gu-20" value="" style="ellipse;whiteSpace=wrap;html=1;aspect=fixed;fillColor=#66B2FF;strokeColor=#6c8ebf;" parent="1" vertex="1">
          <mxGeometry x="265" y="396" width="10" height="10" as="geometry" />
        </mxCell>
        <mxCell id="9aIz3eH4mraqbj3gu_Gu-21" value="" style="rounded=0;whiteSpace=wrap;html=1;" parent="1" vertex="1">
          <mxGeometry x="296" y="80" width="100" height="360" as="geometry" />
        </mxCell>
        <mxCell id="9aIz3eH4mraqbj3gu_Gu-22" value="&lt;b&gt;sw1&lt;/b&gt;" style="text;html=1;align=center;verticalAlign=middle;whiteSpace=wrap;rounded=0;" parent="1" vertex="1">
          <mxGeometry x="326" y="50" width="60" height="30" as="geometry" />
        </mxCell>
        <mxCell id="9aIz3eH4mraqbj3gu_Gu-24" value="M0" style="rounded=0;whiteSpace=wrap;html=1;fillColor=#dae8fc;strokeColor=#6c8ebf;" parent="1" vertex="1">
          <mxGeometry x="321" y="208" width="30" height="30" as="geometry" />
        </mxCell>
        <mxCell id="9aIz3eH4mraqbj3gu_Gu-25" value="M1" style="rounded=0;whiteSpace=wrap;html=1;fillColor=#dae8fc;strokeColor=#6c8ebf;" parent="1" vertex="1">
          <mxGeometry x="321" y="238" width="30" height="30" as="geometry" />
        </mxCell>
        <mxCell id="9aIz3eH4mraqbj3gu_Gu-28" value="&lt;div&gt;EntangleNode&lt;br&gt;&lt;/div&gt;" style="rounded=0;whiteSpace=wrap;html=1;rotation=-90;fillColor=none;labelPosition=center;verticalLabelPosition=top;align=center;verticalAlign=bottom;labelBackgroundColor=default;" parent="1" vertex="1">
          <mxGeometry x="314.13" y="361.13" width="80.75" height="39" as="geometry" />
        </mxCell>
        <mxCell id="9aIz3eH4mraqbj3gu_Gu-42" style="edgeStyle=orthogonalEdgeStyle;rounded=0;orthogonalLoop=1;jettySize=auto;html=1;exitX=1;exitY=0.5;exitDx=0;exitDy=0;entryX=1;entryY=0.5;entryDx=0;entryDy=0;fillColor=#dae8fc;strokeColor=#6c8ebf;" parent="1" source="9aIz3eH4mraqbj3gu_Gu-27" target="9aIz3eH4mraqbj3gu_Gu-24" edge="1">
          <mxGeometry relative="1" as="geometry">
            <Array as="points">
              <mxPoint x="380" y="371" />
              <mxPoint x="380" y="223" />
            </Array>
          </mxGeometry>
        </mxCell>
        <mxCell id="9aIz3eH4mraqbj3gu_Gu-27" value="Q0" style="rounded=0;whiteSpace=wrap;html=1;fillColor=#dae8fc;strokeColor=#6c8ebf;" parent="1" vertex="1">
          <mxGeometry x="340" y="356" width="30" height="30" as="geometry" />
        </mxCell>
        <mxCell id="9aIz3eH4mraqbj3gu_Gu-29" style="edgeStyle=orthogonalEdgeStyle;rounded=0;orthogonalLoop=1;jettySize=auto;html=1;exitX=1;exitY=0.5;exitDx=0;exitDy=0;entryX=0;entryY=0.5;entryDx=0;entryDy=0;fillColor=#dae8fc;strokeColor=#6c8ebf;" parent="1" source="9aIz3eH4mraqbj3gu_Gu-30" target="9aIz3eH4mraqbj3gu_Gu-32" edge="1">
          <mxGeometry relative="1" as="geometry" />
        </mxCell>
        <mxCell id="9aIz3eH4mraqbj3gu_Gu-30" value="Q1" style="rounded=0;whiteSpace=wrap;html=1;fillColor=#dae8fc;strokeColor=#6c8ebf;" parent="1" vertex="1">
          <mxGeometry x="340" y="386" width="30" height="30" as="geometry" />
        </mxCell>
        <mxCell id="9aIz3eH4mraqbj3gu_Gu-31" style="edgeStyle=orthogonalEdgeStyle;rounded=0;orthogonalLoop=1;jettySize=auto;html=1;exitX=1;exitY=0.5;exitDx=0;exitDy=0;entryX=0;entryY=0.5;entryDx=0;entryDy=0;fillColor=#dae8fc;strokeColor=#6c8ebf;" parent="1" source="9aIz3eH4mraqbj3gu_Gu-32" edge="1">
          <mxGeometry relative="1" as="geometry">
            <mxPoint x="421" y="401" as="targetPoint" />
          </mxGeometry>
        </mxCell>
        <mxCell id="9aIz3eH4mraqbj3gu_Gu-32" value="" style="ellipse;whiteSpace=wrap;html=1;aspect=fixed;fillColor=#66B2FF;strokeColor=#6c8ebf;" parent="1" vertex="1">
          <mxGeometry x="391" y="396" width="10" height="10" as="geometry" />
        </mxCell>
        <mxCell id="9aIz3eH4mraqbj3gu_Gu-106" style="edgeStyle=orthogonalEdgeStyle;rounded=0;orthogonalLoop=1;jettySize=auto;html=1;exitX=1;exitY=0.5;exitDx=0;exitDy=0;entryX=0;entryY=0.5;entryDx=0;entryDy=0;fillColor=#dae8fc;strokeColor=#6c8ebf;strokeWidth=2;" parent="1" source="9aIz3eH4mraqbj3gu_Gu-33" target="9aIz3eH4mraqbj3gu_Gu-62" edge="1">
          <mxGeometry relative="1" as="geometry" />
        </mxCell>
        <mxCell id="9aIz3eH4mraqbj3gu_Gu-33" value="" style="ellipse;whiteSpace=wrap;html=1;aspect=fixed;fillColor=#66B2FF;strokeColor=#6c8ebf;" parent="1" vertex="1">
          <mxGeometry x="391" y="92" width="10" height="10" as="geometry" />
        </mxCell>
        <mxCell id="9aIz3eH4mraqbj3gu_Gu-41" style="edgeStyle=orthogonalEdgeStyle;rounded=0;orthogonalLoop=1;jettySize=auto;html=1;exitX=1;exitY=0.5;exitDx=0;exitDy=0;entryX=0;entryY=0.5;entryDx=0;entryDy=0;fillColor=#dae8fc;strokeColor=#6c8ebf;" parent="1" source="9aIz3eH4mraqbj3gu_Gu-35" target="9aIz3eH4mraqbj3gu_Gu-25" edge="1">
          <mxGeometry relative="1" as="geometry">
            <Array as="points">
              <mxPoint x="310" y="401" />
              <mxPoint x="310" y="253" />
            </Array>
          </mxGeometry>
        </mxCell>
        <mxCell id="9aIz3eH4mraqbj3gu_Gu-35" value="" style="ellipse;whiteSpace=wrap;html=1;aspect=fixed;fillColor=#66B2FF;strokeColor=#6c8ebf;" parent="1" vertex="1">
          <mxGeometry x="291" y="396" width="10" height="10" as="geometry" />
        </mxCell>
        <mxCell id="9aIz3eH4mraqbj3gu_Gu-13" value="" style="ellipse;whiteSpace=wrap;html=1;aspect=fixed;fillColor=#66B2FF;strokeColor=#6c8ebf;" parent="1" vertex="1">
          <mxGeometry x="291" y="92" width="10" height="10" as="geometry" />
        </mxCell>
        <mxCell id="9aIz3eH4mraqbj3gu_Gu-43" value="Quantum&lt;div&gt;Channel&lt;/div&gt;" style="rounded=0;whiteSpace=wrap;html=1;" parent="1" vertex="1">
          <mxGeometry x="427" y="381" width="60" height="40" as="geometry" />
        </mxCell>
        <mxCell id="9aIz3eH4mraqbj3gu_Gu-44" value="" style="ellipse;whiteSpace=wrap;html=1;aspect=fixed;fillColor=#66B2FF;strokeColor=#6c8ebf;" parent="1" vertex="1">
          <mxGeometry x="422" y="396" width="10" height="10" as="geometry" />
        </mxCell>
        <mxCell id="9aIz3eH4mraqbj3gu_Gu-45" style="edgeStyle=orthogonalEdgeStyle;rounded=0;orthogonalLoop=1;jettySize=auto;html=1;exitX=1;exitY=0.5;exitDx=0;exitDy=0;fillColor=#dae8fc;strokeColor=#6c8ebf;" parent="1" source="9aIz3eH4mraqbj3gu_Gu-46" edge="1">
          <mxGeometry relative="1" as="geometry">
            <mxPoint x="507" y="401" as="targetPoint" />
          </mxGeometry>
        </mxCell>
        <mxCell id="9aIz3eH4mraqbj3gu_Gu-46" value="" style="ellipse;whiteSpace=wrap;html=1;aspect=fixed;fillColor=#66B2FF;strokeColor=#6c8ebf;" parent="1" vertex="1">
          <mxGeometry x="482" y="396" width="10" height="10" as="geometry" />
        </mxCell>
        <mxCell id="9aIz3eH4mraqbj3gu_Gu-47" value="" style="rounded=0;whiteSpace=wrap;html=1;" parent="1" vertex="1">
          <mxGeometry x="513" y="80" width="100" height="360" as="geometry" />
        </mxCell>
        <mxCell id="9aIz3eH4mraqbj3gu_Gu-48" value="&lt;b&gt;sw2&lt;/b&gt;" style="text;html=1;align=center;verticalAlign=middle;whiteSpace=wrap;rounded=0;" parent="1" vertex="1">
          <mxGeometry x="543" y="50" width="60" height="30" as="geometry" />
        </mxCell>
        <mxCell id="9aIz3eH4mraqbj3gu_Gu-49" value="M0" style="rounded=0;whiteSpace=wrap;html=1;fillColor=#dae8fc;strokeColor=#6c8ebf;" parent="1" vertex="1">
          <mxGeometry x="538" y="208" width="30" height="30" as="geometry" />
        </mxCell>
        <mxCell id="9aIz3eH4mraqbj3gu_Gu-50" value="M1" style="rounded=0;whiteSpace=wrap;html=1;fillColor=#dae8fc;strokeColor=#6c8ebf;" parent="1" vertex="1">
          <mxGeometry x="538" y="238" width="30" height="30" as="geometry" />
        </mxCell>
        <mxCell id="9aIz3eH4mraqbj3gu_Gu-51" value="&lt;div&gt;EntangleNode&lt;br&gt;&lt;/div&gt;" style="rounded=0;whiteSpace=wrap;html=1;rotation=-90;fillColor=none;labelPosition=center;verticalLabelPosition=top;align=center;verticalAlign=bottom;labelBackgroundColor=default;" parent="1" vertex="1">
          <mxGeometry x="529.63" y="359.63" width="83.75" height="39" as="geometry" />
        </mxCell>
        <mxCell id="9aIz3eH4mraqbj3gu_Gu-52" style="edgeStyle=orthogonalEdgeStyle;rounded=0;orthogonalLoop=1;jettySize=auto;html=1;exitX=1;exitY=0.5;exitDx=0;exitDy=0;entryX=1;entryY=0.5;entryDx=0;entryDy=0;fillColor=#dae8fc;strokeColor=#6c8ebf;" parent="1" source="9aIz3eH4mraqbj3gu_Gu-53" target="9aIz3eH4mraqbj3gu_Gu-49" edge="1">
          <mxGeometry relative="1" as="geometry">
            <Array as="points">
              <mxPoint x="597" y="371" />
              <mxPoint x="597" y="223" />
            </Array>
          </mxGeometry>
        </mxCell>
        <mxCell id="9aIz3eH4mraqbj3gu_Gu-53" value="Q0" style="rounded=0;whiteSpace=wrap;html=1;fillColor=#dae8fc;strokeColor=#6c8ebf;" parent="1" vertex="1">
          <mxGeometry x="557" y="356" width="30" height="30" as="geometry" />
        </mxCell>
        <mxCell id="9aIz3eH4mraqbj3gu_Gu-54" style="edgeStyle=orthogonalEdgeStyle;rounded=0;orthogonalLoop=1;jettySize=auto;html=1;exitX=1;exitY=0.5;exitDx=0;exitDy=0;entryX=0;entryY=0.5;entryDx=0;entryDy=0;fillColor=#dae8fc;strokeColor=#6c8ebf;" parent="1" source="9aIz3eH4mraqbj3gu_Gu-55" target="9aIz3eH4mraqbj3gu_Gu-57" edge="1">
          <mxGeometry relative="1" as="geometry" />
        </mxCell>
        <mxCell id="9aIz3eH4mraqbj3gu_Gu-55" value="Q1" style="rounded=0;whiteSpace=wrap;html=1;fillColor=#dae8fc;strokeColor=#6c8ebf;" parent="1" vertex="1">
          <mxGeometry x="557" y="386" width="30" height="30" as="geometry" />
        </mxCell>
        <mxCell id="9aIz3eH4mraqbj3gu_Gu-57" value="" style="ellipse;whiteSpace=wrap;html=1;aspect=fixed;fillColor=#66B2FF;strokeColor=#6c8ebf;" parent="1" vertex="1">
          <mxGeometry x="608" y="396" width="10" height="10" as="geometry" />
        </mxCell>
        <mxCell id="9aIz3eH4mraqbj3gu_Gu-58" value="" style="ellipse;whiteSpace=wrap;html=1;aspect=fixed;fillColor=#66B2FF;strokeColor=#6c8ebf;" parent="1" vertex="1">
          <mxGeometry x="608" y="92" width="10" height="10" as="geometry" />
        </mxCell>
        <mxCell id="9aIz3eH4mraqbj3gu_Gu-60" style="edgeStyle=orthogonalEdgeStyle;rounded=0;orthogonalLoop=1;jettySize=auto;html=1;exitX=1;exitY=0.5;exitDx=0;exitDy=0;entryX=0;entryY=0.5;entryDx=0;entryDy=0;fillColor=#dae8fc;strokeColor=#6c8ebf;" parent="1" source="9aIz3eH4mraqbj3gu_Gu-61" target="9aIz3eH4mraqbj3gu_Gu-50" edge="1">
          <mxGeometry relative="1" as="geometry">
            <Array as="points">
              <mxPoint x="527" y="401" />
              <mxPoint x="527" y="253" />
            </Array>
          </mxGeometry>
        </mxCell>
        <mxCell id="9aIz3eH4mraqbj3gu_Gu-61" value="" style="ellipse;whiteSpace=wrap;html=1;aspect=fixed;fillColor=#66B2FF;strokeColor=#6c8ebf;" parent="1" vertex="1">
          <mxGeometry x="508" y="396" width="10" height="10" as="geometry" />
        </mxCell>
        <mxCell id="9aIz3eH4mraqbj3gu_Gu-62" value="" style="ellipse;whiteSpace=wrap;html=1;aspect=fixed;fillColor=#66B2FF;strokeColor=#6c8ebf;" parent="1" vertex="1">
          <mxGeometry x="508" y="92" width="10" height="10" as="geometry" />
        </mxCell>
        <mxCell id="9aIz3eH4mraqbj3gu_Gu-63" value="&lt;b&gt;&lt;font style=&quot;font-size: 18px;&quot;&gt;...&lt;/font&gt;&lt;/b&gt;" style="rounded=0;whiteSpace=wrap;html=1;strokeColor=none;" parent="1" vertex="1">
          <mxGeometry x="641" y="100" width="60" height="321" as="geometry" />
        </mxCell>
        <mxCell id="9aIz3eH4mraqbj3gu_Gu-67" value="" style="rounded=0;whiteSpace=wrap;html=1;" parent="1" vertex="1">
          <mxGeometry x="727" y="80" width="100" height="360" as="geometry" />
        </mxCell>
        <mxCell id="9aIz3eH4mraqbj3gu_Gu-68" value="&lt;b&gt;swN&lt;/b&gt;" style="text;html=1;align=center;verticalAlign=middle;whiteSpace=wrap;rounded=0;" parent="1" vertex="1">
          <mxGeometry x="756" y="50" width="60" height="30" as="geometry" />
        </mxCell>
        <mxCell id="9aIz3eH4mraqbj3gu_Gu-69" value="M0" style="rounded=0;whiteSpace=wrap;html=1;fillColor=#dae8fc;strokeColor=#6c8ebf;" parent="1" vertex="1">
          <mxGeometry x="752" y="208" width="30" height="30" as="geometry" />
        </mxCell>
        <mxCell id="9aIz3eH4mraqbj3gu_Gu-70" value="M1" style="rounded=0;whiteSpace=wrap;html=1;fillColor=#dae8fc;strokeColor=#6c8ebf;" parent="1" vertex="1">
          <mxGeometry x="752" y="238" width="30" height="30" as="geometry" />
        </mxCell>
        <mxCell id="9aIz3eH4mraqbj3gu_Gu-71" value="&lt;div&gt;EntangleNode&lt;br&gt;&lt;/div&gt;" style="rounded=0;whiteSpace=wrap;html=1;rotation=-90;fillColor=none;labelPosition=center;verticalLabelPosition=top;align=center;verticalAlign=bottom;labelBackgroundColor=default;" parent="1" vertex="1">
          <mxGeometry x="745.63" y="361.63" width="79.75" height="39" as="geometry" />
        </mxCell>
        <mxCell id="9aIz3eH4mraqbj3gu_Gu-72" style="edgeStyle=orthogonalEdgeStyle;rounded=0;orthogonalLoop=1;jettySize=auto;html=1;exitX=1;exitY=0.5;exitDx=0;exitDy=0;entryX=1;entryY=0.5;entryDx=0;entryDy=0;fillColor=#dae8fc;strokeColor=#6c8ebf;" parent="1" source="9aIz3eH4mraqbj3gu_Gu-73" target="9aIz3eH4mraqbj3gu_Gu-69" edge="1">
          <mxGeometry relative="1" as="geometry">
            <Array as="points">
              <mxPoint x="811" y="371" />
              <mxPoint x="811" y="223" />
            </Array>
          </mxGeometry>
        </mxCell>
        <mxCell id="9aIz3eH4mraqbj3gu_Gu-73" value="Q0" style="rounded=0;whiteSpace=wrap;html=1;fillColor=#dae8fc;strokeColor=#6c8ebf;" parent="1" vertex="1">
          <mxGeometry x="771" y="356" width="30" height="30" as="geometry" />
        </mxCell>
        <mxCell id="9aIz3eH4mraqbj3gu_Gu-74" style="edgeStyle=orthogonalEdgeStyle;rounded=0;orthogonalLoop=1;jettySize=auto;html=1;exitX=1;exitY=0.5;exitDx=0;exitDy=0;entryX=0;entryY=0.5;entryDx=0;entryDy=0;fillColor=#dae8fc;strokeColor=#6c8ebf;" parent="1" source="9aIz3eH4mraqbj3gu_Gu-75" target="9aIz3eH4mraqbj3gu_Gu-77" edge="1">
          <mxGeometry relative="1" as="geometry" />
        </mxCell>
        <mxCell id="9aIz3eH4mraqbj3gu_Gu-75" value="Q1" style="rounded=0;whiteSpace=wrap;html=1;fillColor=#dae8fc;strokeColor=#6c8ebf;" parent="1" vertex="1">
          <mxGeometry x="771" y="386" width="30" height="30" as="geometry" />
        </mxCell>
        <mxCell id="9aIz3eH4mraqbj3gu_Gu-76" style="edgeStyle=orthogonalEdgeStyle;rounded=0;orthogonalLoop=1;jettySize=auto;html=1;exitX=1;exitY=0.5;exitDx=0;exitDy=0;entryX=0;entryY=0.5;entryDx=0;entryDy=0;fillColor=#dae8fc;strokeColor=#6c8ebf;" parent="1" source="9aIz3eH4mraqbj3gu_Gu-77" edge="1">
          <mxGeometry relative="1" as="geometry">
            <mxPoint x="852" y="401" as="targetPoint" />
          </mxGeometry>
        </mxCell>
        <mxCell id="9aIz3eH4mraqbj3gu_Gu-77" value="" style="ellipse;whiteSpace=wrap;html=1;aspect=fixed;fillColor=#66B2FF;strokeColor=#6c8ebf;" parent="1" vertex="1">
          <mxGeometry x="822" y="396" width="10" height="10" as="geometry" />
        </mxCell>
        <mxCell id="9aIz3eH4mraqbj3gu_Gu-108" style="edgeStyle=orthogonalEdgeStyle;rounded=0;orthogonalLoop=1;jettySize=auto;html=1;exitX=1;exitY=0.5;exitDx=0;exitDy=0;fillColor=#dae8fc;strokeColor=#6c8ebf;strokeWidth=2;" parent="1" source="9aIz3eH4mraqbj3gu_Gu-78" target="9aIz3eH4mraqbj3gu_Gu-107" edge="1">
          <mxGeometry relative="1" as="geometry" />
        </mxCell>
        <mxCell id="9aIz3eH4mraqbj3gu_Gu-78" value="" style="ellipse;whiteSpace=wrap;html=1;aspect=fixed;fillColor=#66B2FF;strokeColor=#6c8ebf;" parent="1" vertex="1">
          <mxGeometry x="822" y="92" width="10" height="10" as="geometry" />
        </mxCell>
        <mxCell id="9aIz3eH4mraqbj3gu_Gu-79" style="edgeStyle=orthogonalEdgeStyle;rounded=0;orthogonalLoop=1;jettySize=auto;html=1;exitX=1;exitY=0.5;exitDx=0;exitDy=0;entryX=0;entryY=0.5;entryDx=0;entryDy=0;fillColor=#dae8fc;strokeColor=#6c8ebf;" parent="1" source="9aIz3eH4mraqbj3gu_Gu-80" target="9aIz3eH4mraqbj3gu_Gu-70" edge="1">
          <mxGeometry relative="1" as="geometry">
            <Array as="points">
              <mxPoint x="741" y="401" />
              <mxPoint x="741" y="253" />
            </Array>
          </mxGeometry>
        </mxCell>
        <mxCell id="9aIz3eH4mraqbj3gu_Gu-80" value="" style="ellipse;whiteSpace=wrap;html=1;aspect=fixed;fillColor=#66B2FF;strokeColor=#6c8ebf;" parent="1" vertex="1">
          <mxGeometry x="722" y="396" width="10" height="10" as="geometry" />
        </mxCell>
        <mxCell id="9aIz3eH4mraqbj3gu_Gu-81" value="" style="ellipse;whiteSpace=wrap;html=1;aspect=fixed;fillColor=#66B2FF;strokeColor=#6c8ebf;" parent="1" vertex="1">
          <mxGeometry x="722" y="92" width="10" height="10" as="geometry" />
        </mxCell>
        <mxCell id="9aIz3eH4mraqbj3gu_Gu-82" value="" style="rounded=0;whiteSpace=wrap;html=1;" parent="1" vertex="1">
          <mxGeometry x="944" y="80" width="100" height="360" as="geometry" />
        </mxCell>
        <mxCell id="9aIz3eH4mraqbj3gu_Gu-83" value="&lt;b&gt;node2&lt;/b&gt;" style="text;html=1;align=center;verticalAlign=middle;whiteSpace=wrap;rounded=0;" parent="1" vertex="1">
          <mxGeometry x="974" y="50" width="60" height="30" as="geometry" />
        </mxCell>
        <mxCell id="9aIz3eH4mraqbj3gu_Gu-85" value="M0" style="rounded=0;whiteSpace=wrap;html=1;fillColor=#dae8fc;strokeColor=#6c8ebf;" parent="1" vertex="1">
          <mxGeometry x="1006" y="204" width="30" height="30" as="geometry" />
        </mxCell>
        <mxCell id="9aIz3eH4mraqbj3gu_Gu-86" value="M1" style="rounded=0;whiteSpace=wrap;html=1;fillColor=none;strokeColor=#6c8ebf;" parent="1" vertex="1">
          <mxGeometry x="1006" y="234" width="30" height="30" as="geometry" />
        </mxCell>
        <mxCell id="9aIz3eH4mraqbj3gu_Gu-94" value="Quantum&lt;div&gt;Channel&lt;/div&gt;" style="rounded=0;whiteSpace=wrap;html=1;" parent="1" vertex="1">
          <mxGeometry x="855" y="381" width="60" height="40" as="geometry" />
        </mxCell>
        <mxCell id="9aIz3eH4mraqbj3gu_Gu-95" value="" style="ellipse;whiteSpace=wrap;html=1;aspect=fixed;fillColor=#66B2FF;strokeColor=#6c8ebf;" parent="1" vertex="1">
          <mxGeometry x="850" y="396" width="10" height="10" as="geometry" />
        </mxCell>
        <mxCell id="9aIz3eH4mraqbj3gu_Gu-98" style="edgeStyle=orthogonalEdgeStyle;rounded=0;orthogonalLoop=1;jettySize=auto;html=1;exitX=1;exitY=0.5;exitDx=0;exitDy=0;entryX=0;entryY=0.5;entryDx=0;entryDy=0;fillColor=#dae8fc;strokeColor=#6c8ebf;" parent="1" source="9aIz3eH4mraqbj3gu_Gu-96" target="9aIz3eH4mraqbj3gu_Gu-97" edge="1">
          <mxGeometry relative="1" as="geometry" />
        </mxCell>
        <mxCell id="9aIz3eH4mraqbj3gu_Gu-96" value="" style="ellipse;whiteSpace=wrap;html=1;aspect=fixed;fillColor=#66B2FF;strokeColor=#6c8ebf;" parent="1" vertex="1">
          <mxGeometry x="910" y="396" width="10" height="10" as="geometry" />
        </mxCell>
        <mxCell id="9aIz3eH4mraqbj3gu_Gu-103" style="edgeStyle=orthogonalEdgeStyle;rounded=0;orthogonalLoop=1;jettySize=auto;html=1;exitX=1;exitY=0.5;exitDx=0;exitDy=0;entryX=0;entryY=0.5;entryDx=0;entryDy=0;fillColor=#dae8fc;strokeColor=#6c8ebf;" parent="1" source="9aIz3eH4mraqbj3gu_Gu-97" target="9aIz3eH4mraqbj3gu_Gu-85" edge="1">
          <mxGeometry relative="1" as="geometry" />
        </mxCell>
        <mxCell id="9aIz3eH4mraqbj3gu_Gu-97" value="" style="ellipse;whiteSpace=wrap;html=1;aspect=fixed;fillColor=#66B2FF;strokeColor=#6c8ebf;" parent="1" vertex="1">
          <mxGeometry x="939" y="396" width="10" height="10" as="geometry" />
        </mxCell>
        <mxCell id="9aIz3eH4mraqbj3gu_Gu-99" style="edgeStyle=orthogonalEdgeStyle;rounded=0;orthogonalLoop=1;jettySize=auto;html=1;exitX=1;exitY=0.5;exitDx=0;exitDy=0;entryX=0;entryY=0.5;entryDx=0;entryDy=0;fillColor=#dae8fc;strokeColor=#6c8ebf;" parent="1" edge="1">
          <mxGeometry relative="1" as="geometry">
            <mxPoint x="703" y="401" as="sourcePoint" />
            <mxPoint x="722" y="401" as="targetPoint" />
          </mxGeometry>
        </mxCell>
        <mxCell id="9aIz3eH4mraqbj3gu_Gu-100" style="edgeStyle=orthogonalEdgeStyle;rounded=0;orthogonalLoop=1;jettySize=auto;html=1;exitX=1;exitY=0.5;exitDx=0;exitDy=0;entryX=0;entryY=0.5;entryDx=0;entryDy=0;fillColor=#dae8fc;strokeColor=#6c8ebf;" parent="1" edge="1">
          <mxGeometry relative="1" as="geometry">
            <mxPoint x="619" y="400" as="sourcePoint" />
            <mxPoint x="638" y="400" as="targetPoint" />
          </mxGeometry>
        </mxCell>
        <mxCell id="9aIz3eH4mraqbj3gu_Gu-101" style="edgeStyle=orthogonalEdgeStyle;rounded=0;orthogonalLoop=1;jettySize=auto;html=1;exitX=1;exitY=0.5;exitDx=0;exitDy=0;entryX=0;entryY=0.5;entryDx=0;entryDy=0;fillColor=#dae8fc;strokeColor=#6c8ebf;strokeWidth=2;" parent="1" edge="1">
          <mxGeometry relative="1" as="geometry">
            <mxPoint x="619" y="97" as="sourcePoint" />
            <mxPoint x="638" y="97" as="targetPoint" />
          </mxGeometry>
        </mxCell>
        <mxCell id="9aIz3eH4mraqbj3gu_Gu-102" style="edgeStyle=orthogonalEdgeStyle;rounded=0;orthogonalLoop=1;jettySize=auto;html=1;exitX=1;exitY=0.5;exitDx=0;exitDy=0;entryX=0;entryY=0.5;entryDx=0;entryDy=0;fillColor=#dae8fc;strokeColor=#6c8ebf;strokeWidth=2;" parent="1" edge="1">
          <mxGeometry relative="1" as="geometry">
            <mxPoint x="704" y="97" as="sourcePoint" />
            <mxPoint x="723" y="97" as="targetPoint" />
          </mxGeometry>
        </mxCell>
        <mxCell id="9aIz3eH4mraqbj3gu_Gu-107" value="" style="ellipse;whiteSpace=wrap;html=1;aspect=fixed;fillColor=#66B2FF;strokeColor=#6c8ebf;" parent="1" vertex="1">
          <mxGeometry x="939" y="92" width="10" height="10" as="geometry" />
        </mxCell>
        <mxCell id="9aIz3eH4mraqbj3gu_Gu-109" value="classical" style="text;html=1;align=center;verticalAlign=middle;whiteSpace=wrap;rounded=0;" parent="1" vertex="1">
          <mxGeometry x="205" y="72" width="60" height="30" as="geometry" />
        </mxCell>
        <mxCell id="9aIz3eH4mraqbj3gu_Gu-110" value="classical" style="text;html=1;align=center;verticalAlign=middle;whiteSpace=wrap;rounded=0;" parent="1" vertex="1">
          <mxGeometry x="422" y="70" width="60" height="30" as="geometry" />
        </mxCell>
        <mxCell id="9aIz3eH4mraqbj3gu_Gu-111" value="classical" style="text;html=1;align=center;verticalAlign=middle;whiteSpace=wrap;rounded=0;" parent="1" vertex="1">
          <mxGeometry x="855" y="70" width="60" height="30" as="geometry" />
        </mxCell>
        <mxCell id="9aIz3eH4mraqbj3gu_Gu-115" value="ccon_L_sw1_path1_1" style="text;html=1;align=center;verticalAlign=middle;whiteSpace=wrap;rounded=0;fontSize=11;rotation=-90;" parent="1" vertex="1">
          <mxGeometry x="185" y="174" width="150" height="30" as="geometry" />
        </mxCell>
        <mxCell id="9aIz3eH4mraqbj3gu_Gu-112" value="ccon_R_node1_path1_1" style="text;html=1;align=center;verticalAlign=middle;whiteSpace=wrap;rounded=0;fontSize=11;rotation=-90;" parent="1" vertex="1">
          <mxGeometry x="136.13" y="180" width="147.75" height="30" as="geometry" />
        </mxCell>
        <mxCell id="9aIz3eH4mraqbj3gu_Gu-123" value="" style="endArrow=classic;html=1;rounded=0;entryX=1;entryY=1;entryDx=0;entryDy=0;" parent="1" target="9aIz3eH4mraqbj3gu_Gu-12" edge="1">
          <mxGeometry width="50" height="50" relative="1" as="geometry">
            <mxPoint x="200" y="130" as="sourcePoint" />
            <mxPoint x="350" y="210" as="targetPoint" />
          </mxGeometry>
        </mxCell>
        <mxCell id="9aIz3eH4mraqbj3gu_Gu-124" value="" style="endArrow=classic;html=1;rounded=0;" parent="1" edge="1">
          <mxGeometry width="50" height="50" relative="1" as="geometry">
            <mxPoint x="270" y="130" as="sourcePoint" />
            <mxPoint x="290" y="100" as="targetPoint" />
          </mxGeometry>
        </mxCell>
      </root>
    </mxGraphModel>
  </diagram>
</mxfile>
